<svg width="1187" height="447" viewBox="0 0 1187 447" fill="none" xmlns="http://www.w3.org/2000/svg">
<g id="CodeWarlord-Logo__1024x1024">
<path id="{" opacity="0.55" d="M76.7531 176.3C69.9531 176.3 63.5531 178 57.5531 181.4C51.7531 184.6 48.8531 189.7 48.8531 196.7C48.8531 203.7 49.2531 210.7 50.0531 217.7C50.8531 224.7 51.5531 231.5 52.1531 238.1C52.9531 244.5 53.3531 250.6 53.3531 256.4C53.3531 263.4 51.2531 269.3 47.0531 274.1C42.8531 278.9 38.0531 282.1 32.6531 283.7C38.0531 285.1 42.8531 288.3 47.0531 293.3C51.2531 298.1 53.3531 304 53.3531 311C53.3531 316.8 52.9531 323 52.1531 329.6C51.5531 336.2 50.8531 343 50.0531 350C49.2531 356.8 48.8531 363.7 48.8531 370.7C48.8531 377.7 51.7531 382.8 57.5531 386C63.5531 389.4 69.9531 391.1 76.7531 391.1V407.6C66.1531 407.6 57.2531 406 50.0531 402.8C43.0531 399.8 37.8531 395.3 34.4531 389.3C31.0531 383.5 29.3531 376.6 29.3531 368.6C29.3531 359.6 29.6531 351.9 30.2531 345.5C31.0531 338.9 31.7531 332.9 32.3531 327.5C32.9531 322.1 33.2531 316.7 33.2531 311.3C33.2531 306.1 31.2531 301.8 27.2531 298.4C23.4531 294.8 17.9531 292.3 10.7531 290.9V276.5C17.9531 274.9 23.4531 272.4 27.2531 269C31.2531 265.6 33.2531 261.3 33.2531 256.1C33.2531 250.7 32.9531 245.3 32.3531 239.9C31.7531 234.5 31.0531 228.5 30.2531 221.9C29.6531 215.3 29.3531 207.6 29.3531 198.8C29.3531 190.6 31.0531 183.6 34.4531 177.8C37.8531 172 43.0531 167.6 50.0531 164.6C57.2531 161.4 66.1531 159.8 76.7531 159.8V176.3Z" fill="url(#paint0_linear_47_2)"/>
<g id="Vector 1" filter="url(#filter0_d_47_2)">
<path fill-rule="evenodd" clip-rule="evenodd" d="M84 356.664C84 356.664 139.062 411.418 178.951 440.036L176.636 287.187L123.37 264.028L114.107 224.658L197.479 264.028L192.847 324.241L213.69 347.4L234.533 324.241L229.901 264.028L315.589 224.658L304.01 264.028L250.744 289.503V440.036C292.161 412.844 312.667 394.351 343.38 354.348C317.905 321.925 317.622 319.458 341.064 298.766L338.748 208.447C329.484 141.749 273.131 117.355 246.112 113.495L225.269 185.288L234.533 113.495L246.112 88.0205L213.69 6.96436L178.951 88.0205L192.847 113.495L202.11 185.288L181.267 113.495C116.422 120.906 94.0355 179.884 90.9477 208.447L86.3159 301.082C109.785 314.627 108.16 327.171 84 356.664Z" fill="url(#paint1_linear_47_2)"/>
</g>
<g id="Frame 3" opacity="0.55" filter="url(#filter1_d_47_2)">
<path id="}" d="M357.333 390.8C364.333 390.8 370.733 389.1 376.533 385.7C382.333 382.5 385.233 377.4 385.233 370.4C385.233 363.4 384.833 356.4 384.033 349.4C383.433 342.4 382.733 335.7 381.933 329.3C381.133 322.7 380.733 316.5 380.733 310.7C380.733 303.7 382.833 297.8 387.033 293C391.233 288 396.033 284.8 401.433 283.4C396.033 281.8 391.233 278.6 387.033 273.8C382.833 269 380.733 263.1 380.733 256.1C380.733 250.3 381.133 244.1 381.933 237.5C382.733 230.9 383.433 224.2 384.033 217.4C384.833 210.4 385.233 203.4 385.233 196.4C385.233 189.4 382.333 184.3 376.533 181.1C370.733 177.7 364.333 176 357.333 176V159.5C368.133 159.5 376.933 161.1 383.733 164.3C390.733 167.3 395.933 171.7 399.333 177.5C402.933 183.3 404.733 190.3 404.733 198.5C404.733 207.3 404.333 215 403.533 221.6C402.933 228.2 402.233 234.2 401.433 239.6C400.833 245 400.533 250.4 400.533 255.8C400.533 261 402.433 265.3 406.233 268.7C410.233 272.1 415.833 274.6 423.033 276.2V290.6C415.833 292 410.233 294.5 406.233 298.1C402.433 301.5 400.533 305.8 400.533 311C400.533 316.4 400.833 321.8 401.433 327.2C402.233 332.6 402.933 338.6 403.533 345.2C404.333 351.6 404.733 359.3 404.733 368.3C404.733 376.3 402.933 383.2 399.333 389C395.933 395 390.733 399.5 383.733 402.5C376.933 405.7 368.133 407.3 357.333 407.3V390.8Z" fill="url(#paint2_linear_47_2)"/>
</g>
<g id="Group" opacity="0.85" filter="url(#filter2_d_47_2)">
<path id="Polygon 2" d="M1171.27 385.062L1048.88 382.397V387.727L1171.27 385.062Z" fill="url(#paint3_linear_47_2)"/>
<path id="Polygon 1" d="M444.701 385.062L567.087 382.397V387.727L444.701 385.062Z" fill="url(#paint4_linear_47_2)"/>
<path id="the art of code in every byte" d="M593.137 378.251H596.528H602.112V381.641H596.528H593.137H587.568V378.251H593.137ZM596.528 382.988V393.053H593.137V382.988H596.528ZM605.23 393.053V387.347V383.957H608.68H609.422H611.617H615.582H616.323V383.215V378.251H619.774V383.957V387.347V393.053H616.323V388.104V387.347H615.582H609.422H608.68V388.104V393.053H605.23ZM605.23 382.625V381.702V378.251H608.68V382.625H605.23ZM626.433 383.836H635.03V387.226H626.433V389.481H637.512V391.312L635.892 392.931H622.983V382.928H626.433V383.836ZM622.983 381.581V378.13H635.892L637.512 379.764V381.581H622.983ZM660.909 392.992L660.017 390.586H652.722L651.829 392.992H648.151L651.844 382.988H655.522L653.993 387.135H658.745L656.702 381.641H652.343L653.63 378.19H659.108L664.587 392.992H660.909ZM676.241 381.671H671.065H667.614V380.34V378.221H678.708H680.524L682.158 379.855V381.671V384.774V385.697L681.765 386.091L680.524 387.317H678.708H677.951H677.921L680.857 391.297L682.158 393.022H677.86L677.043 391.933L673.622 387.317H671.065V389.572V389.98V393.022H667.614V389.98V389.572V387.317V383.926V383.018H671.065V383.926H677.951L678.708 383.185V382.428L677.951 381.671H676.241ZM690.815 378.251H694.205H699.79V381.641H694.205H690.815H685.246V378.251H690.815ZM694.205 382.988V393.053H690.815V382.988H694.205ZM710.641 379.886L712.276 378.266H723.551L725.185 379.886V391.433L723.551 393.068H712.276L710.641 391.433V382.988H714.092V388.921L714.833 389.678H720.978L721.735 388.921V382.398L720.978 381.656H710.641V379.886ZM731.739 393.143H728.288V389.693V383.124H731.739V384.048H738.625V387.438H731.739V389.693V393.143ZM728.288 381.792V378.342H741.198L742.832 379.961V381.792H738.625H734.342H732.813H731.739H728.288ZM757.059 383.109V389.678H768.152V391.494L766.533 393.128H753.623V383.109H757.059ZM766.533 378.327L768.152 379.946V381.777H753.623V378.327H766.533ZM771.118 379.886L772.753 378.266H784.028L785.663 379.886V391.433L784.028 393.068H772.753L771.118 391.433V382.988H774.569V388.921L775.311 389.678H781.455L782.212 388.921V382.398L781.455 381.656H771.118V379.886ZM792.307 378.206H799.934H801.766L803.385 379.84V381.656V383.881V387.332V389.572V391.388L801.766 393.007H799.934H792.307H788.856V389.572V387.332V383.881V383.003H792.307V383.881V387.332V389.572H799.193L799.934 388.815V387.332V383.881V382.413L799.193 381.656H794.91H792.307H788.856V378.206H792.307ZM810.014 383.836H818.61V387.226H810.014V389.481H821.092V391.312L819.473 392.931H806.563V382.928H810.014V383.836ZM806.563 381.581V378.13H819.473L821.092 379.764V381.581H806.563ZM831.808 389.678H833.503V387.604V386.393V383.109H836.953V387.604V389.678H838.724V393.113H836.953H836.151H835.576H833.503H831.808V389.678ZM831.808 378.312H833.503H836.151H836.953H838.724V381.762H836.953H836.151H835.576H833.503H831.808V378.312ZM845.459 392.947H842.008V391.857V389.329V382.943H845.459V389.329V391.857V392.947ZM842.008 381.596V378.145H843.295H852.496H853.843L855.16 379.447V389.329V391.857V392.947H851.709V391.857V389.329V382.322L850.983 381.596H849.424H845.459H842.008ZM869.553 383.836H878.149V387.226H869.553V389.481H880.631V391.312L879.012 392.931H866.102V382.928H869.553V383.836ZM866.102 381.581V378.13H879.012L880.631 379.764V381.581H866.102ZM883.234 378.251H886.897L890.499 388.361L894.116 378.251H897.779L892.497 393.053H888.516L883.234 378.251ZM904.059 383.836H912.656V387.226H904.059V389.481H915.138V391.312L913.519 392.931H900.609V382.928H904.059V383.836ZM900.609 381.581V378.13H913.519L915.138 379.764V381.581H900.609ZM926.807 381.671H921.631H918.18V380.34V378.221H929.273H931.09L932.724 379.855V381.671V384.774V385.697L932.331 386.091L931.09 387.317H929.273H928.517H928.486L931.423 391.297L932.724 393.022H928.426L927.609 391.933L924.188 387.317H921.631V389.572V389.98V393.022H918.18V389.98V389.572V387.317V383.926V383.018H921.631V383.926H928.517L929.273 383.185V382.428L928.517 381.671H926.807ZM939.822 393.083H935.721V392.931L940.836 385.606L935.721 378.281H939.928L942.94 382.595L945.952 378.281H950.159L939.822 393.083ZM966.338 381.581H964.204H960.753V380.234V378.13H971.847H973.663L975.282 379.749V381.581V384.683L974.435 385.531L975.282 386.378V389.481V391.297L973.663 392.931H971.847H964.204H960.753V389.874V389.481V387.226V383.836V382.912H964.204V383.836H971.09L971.847 383.094V382.322L971.09 381.581H966.338ZM964.204 389.481H971.09L971.847 388.739V387.967L971.09 387.226H964.204V389.481ZM982.259 393.083H978.158V392.931L983.273 385.606L978.158 378.281H982.365L985.377 382.595L988.389 378.281H992.596L982.259 393.083ZM1001.04 378.251H1004.43H1010.02V381.641H1004.43H1001.04H995.472V378.251H1001.04ZM1004.43 382.988V393.053H1001.04V382.988H1004.43ZM1016.66 383.836H1025.26V387.226H1016.66V389.481H1027.74V391.312L1026.12 392.931H1013.21V382.928H1016.66V383.836ZM1013.21 381.581V378.13H1026.12L1027.74 379.764V381.581H1013.21Z" fill="#808080"/>
<path id="warlord" d="M509.676 231.379V238.056H509.765V294.143L514.127 298.505H537.808L542.171 294.143V231.379H562.024V310.791L554.456 318.358H506.293L499.794 311.859L493.206 318.358H445.043L437.476 310.791V231.379H457.418V294.143L461.78 298.505H485.372L489.734 294.143V231.379H509.676ZM654.7 318.091L649.447 303.936H606.537L601.284 318.091H579.651L601.373 259.245H623.006L614.015 283.638H641.969L629.951 251.321H604.311L611.878 231.023H644.106L676.333 318.091H654.7ZM744.883 251.499H714.436H694.138V243.665V231.201H759.395H770.078L779.693 240.816V251.499V269.75V275.18L777.378 277.495L770.078 284.706H759.395H754.943H754.765L772.036 308.12L779.693 318.269H754.409L749.602 311.859L729.482 284.706H714.436V297.971V300.375V318.269H694.138V300.375V297.971V284.706V264.764V259.423H714.436V264.764H754.943L759.395 260.402V255.951L754.943 251.499H744.883ZM818.152 230.934V285.596V293.698L822.514 298.06H845.75V295.745V291.65V282.569H866.048V291.65V295.745V298.06V298.683V309.366V318.002H845.75H818.152H807.38L797.854 308.476V285.596V278.474V230.934H818.152ZM884.387 240.994L894.002 231.468H960.327L969.941 240.994V308.921L960.327 318.536H894.002L884.387 308.921V259.245H904.685V294.143L909.048 298.594H945.192L949.643 294.143V255.773L945.192 251.41H884.387V240.994ZM1039.2 251.499H1008.76H988.459V243.665V231.201H1053.72H1064.4L1074.01 240.816V251.499V269.75V275.18L1071.7 277.495L1064.4 284.706H1053.72H1049.26H1049.09L1066.36 308.12L1074.01 318.269H1048.73L1043.92 311.859L1023.8 284.706H1008.76V297.971V300.375V318.269H988.459V300.375V297.971V284.706V264.764V259.423H1008.76V264.764H1049.26L1053.72 260.402V255.951L1049.26 251.499H1039.2ZM1113.01 231.112H1157.88H1168.65L1178.17 240.727V251.41V264.497V284.795V297.971V308.654L1168.65 318.18H1157.88H1113.01H1092.71V297.971V284.795V264.497V259.334H1113.01V264.497V284.795V297.971H1153.51L1157.88 293.52V284.795V264.497V255.862L1153.51 251.41H1128.32H1113.01H1092.71V231.112H1113.01Z" fill="url(#paint5_linear_47_2)"/>
<path id="code" d="M630.393 149.174V187.812H695.649V198.495L686.123 208.11H610.184V149.174H630.393ZM686.123 121.042L695.649 130.568V141.34H610.184V121.042H686.123ZM713.098 130.212L722.713 120.686H789.037L798.652 130.212V198.139L789.037 207.754H722.713L713.098 198.139V148.462H733.396V183.36L737.758 187.812H773.903L778.354 183.36V144.99L773.903 140.628H713.098V130.212ZM837.735 120.33H882.604H893.376L902.902 129.945V140.628V153.715V174.013V187.189V197.872L893.376 207.398H882.604H837.735H817.437V187.189V174.013V153.715V148.551H837.735V153.715V174.013V187.189H878.242L882.604 182.737V174.013V153.715V145.079L878.242 140.628H853.047H837.735H817.437V120.33H837.735ZM941.895 153.448H992.462V173.39H941.895V186.654H1007.06V197.427L997.537 206.952H921.597V148.106H941.895V153.448ZM921.597 140.183V119.885H997.537L1007.06 129.5V140.183H921.597Z" fill="url(#paint6_linear_47_2)"/>
</g>
</g>
<defs>
<filter id="filter0_d_47_2" x="80.3535" y="6.96436" width="266.673" height="440.364" filterUnits="userSpaceOnUse" color-interpolation-filters="sRGB">
<feFlood flood-opacity="0" result="BackgroundImageFix"/>
<feColorMatrix in="SourceAlpha" type="matrix" values="0 0 0 0 0 0 0 0 0 0 0 0 0 0 0 0 0 0 127 0" result="hardAlpha"/>
<feOffset dy="3.64651"/>
<feGaussianBlur stdDeviation="1.82326"/>
<feComposite in2="hardAlpha" operator="out"/>
<feColorMatrix type="matrix" values="0 0 0 0 0 0 0 0 0 0 0 0 0 0 0 0 0 0 0.25 0"/>
<feBlend mode="normal" in2="BackgroundImageFix" result="effect1_dropShadow_47_2"/>
<feBlend mode="normal" in="SourceGraphic" in2="effect1_dropShadow_47_2" result="shape"/>
</filter>
<filter id="filter1_d_47_2" x="339.733" y="98" width="91.293" height="316.593" filterUnits="userSpaceOnUse" color-interpolation-filters="sRGB">
<feFlood flood-opacity="0" result="BackgroundImageFix"/>
<feColorMatrix in="SourceAlpha" type="matrix" values="0 0 0 0 0 0 0 0 0 0 0 0 0 0 0 0 0 0 127 0" result="hardAlpha"/>
<feOffset dy="3.64651"/>
<feGaussianBlur stdDeviation="1.82326"/>
<feComposite in2="hardAlpha" operator="out"/>
<feColorMatrix type="matrix" values="0 0 0 0 0 0 0 0 0 0 0 0 0 0 0 0 0 0 0.25 0"/>
<feBlend mode="normal" in2="BackgroundImageFix" result="effect1_dropShadow_47_2"/>
<feBlend mode="normal" in="SourceGraphic" in2="effect1_dropShadow_47_2" result="shape"/>
</filter>
<filter id="filter2_d_47_2" x="433.829" y="119.885" width="747.991" height="280.552" filterUnits="userSpaceOnUse" color-interpolation-filters="sRGB">
<feFlood flood-opacity="0" result="BackgroundImageFix"/>
<feColorMatrix in="SourceAlpha" type="matrix" values="0 0 0 0 0 0 0 0 0 0 0 0 0 0 0 0 0 0 127 0" result="hardAlpha"/>
<feOffset dy="3.64651"/>
<feGaussianBlur stdDeviation="1.82326"/>
<feComposite in2="hardAlpha" operator="out"/>
<feColorMatrix type="matrix" values="0 0 0 0 0 0 0 0 0 0 0 0 0 0 0 0 0 0 0.25 0"/>
<feBlend mode="normal" in2="BackgroundImageFix" result="effect1_dropShadow_47_2"/>
<feBlend mode="normal" in="SourceGraphic" in2="effect1_dropShadow_47_2" result="shape"/>
</filter>
<linearGradient id="paint0_linear_47_2" x1="45.3231" y1="138.924" x2="-32.3179" y2="198.453" gradientUnits="userSpaceOnUse">
<stop stop-color="#FCBD0E"/>
<stop offset="1" stop-color="#F33F19"/>
</linearGradient>
<linearGradient id="paint1_linear_47_2" x1="213.609" y1="439.988" x2="213.609" y2="-54.1147" gradientUnits="userSpaceOnUse">
<stop stop-color="#214C58"/>
<stop offset="1" stop-color="#1C6D75"/>
</linearGradient>
<linearGradient id="paint2_linear_47_2" x1="395.717" y1="156.696" x2="292.636" y2="220.328" gradientUnits="userSpaceOnUse">
<stop stop-color="#FCBD0E"/>
<stop offset="1" stop-color="#F33F19"/>
</linearGradient>
<linearGradient id="paint3_linear_47_2" x1="1167.62" y1="388.14" x2="1047.29" y2="388.14" gradientUnits="userSpaceOnUse">
<stop stop-color="#EDAE29"/>
<stop offset="1" stop-color="#E24929"/>
</linearGradient>
<linearGradient id="paint4_linear_47_2" x1="448.347" y1="388.14" x2="568.682" y2="388.14" gradientUnits="userSpaceOnUse">
<stop stop-color="#EDAE29"/>
<stop offset="1" stop-color="#E24929"/>
</linearGradient>
<linearGradient id="paint5_linear_47_2" x1="111.169" y1="338.303" x2="1158.87" y2="231.344" gradientUnits="userSpaceOnUse">
<stop stop-color="#055870"/>
<stop offset="1" stop-color="#1A96A2"/>
</linearGradient>
<linearGradient id="paint6_linear_47_2" x1="824.506" y1="80.0221" x2="798.068" y2="204.136" gradientUnits="userSpaceOnUse">
<stop stop-color="#FCBD0E"/>
<stop offset="1" stop-color="#F33F19"/>
</linearGradient>
</defs>
</svg>
